<?xml version="1.0" encoding="UTF-8" standalone="no"?>
<!-- Created with Inkscape (http://www.inkscape.org/) -->

<svg
   version="1.1"
   id="svg1961"
   width="385.59363"
   height="294.05182"
   viewBox="0 0 385.59363 294.05182"
   sodipodi:docname="epiphany.svg"
   inkscape:version="1.2.2 (b0a8486541, 2022-12-01)"
   inkscape:export-filename="../Documents/AppAcademy/projects/epiphany/frontend/public/epiphany.svg"
   inkscape:export-xdpi="96"
   inkscape:export-ydpi="96"
   xmlns:inkscape="http://www.inkscape.org/namespaces/inkscape"
   xmlns:sodipodi="http://sodipodi.sourceforge.net/DTD/sodipodi-0.dtd"
   xmlns="http://www.w3.org/2000/svg"
   xmlns:svg="http://www.w3.org/2000/svg">
  <defs
     id="defs1965">
    <clipPath
       clipPathUnits="userSpaceOnUse"
       id="clipPath12828">
      <path
         id="lpe_path-effect12832"
         style="display:inline;fill:#d2f1e4;fill-opacity:1;fill-rule:nonzero;stroke:none;stroke-width:4.10471;stroke-linecap:round;stroke-linejoin:round;stroke-opacity:1"
         class="powerclip"
         d="m 197.34641,145.34425 h 56.25766 v 44.28165 h -56.25766 z m 65.94141,15.23091 a 25.915922,25.915922 0 0 0 -25.91592,-25.91592 25.915922,25.915922 0 0 0 -25.91592,25.91592 25.915922,25.915922 0 0 0 25.91592,25.91593 25.915922,25.915922 0 0 0 25.91592,-25.91593 z" />
    </clipPath>
    <filter
       style="color-interpolation-filters:sRGB"
       inkscape:label="Drop Shadow"
       id="filter16587"
       x="-0.056261849"
       y="-0.37232673"
       width="1.1124853"
       height="1.7449226">
      <feFlood
         flood-opacity="1"
         flood-color="rgb(239,176,170)"
         result="flood"
         id="feFlood16577" />
      <feComposite
         in="SourceGraphic"
         in2="flood"
         operator="in"
         result="composite1"
         id="feComposite16579" />
      <feGaussianBlur
         in="composite1"
         stdDeviation="7.5"
         result="blur"
         id="feGaussianBlur16581" />
      <feOffset
         dx="0"
         dy="0"
         result="offset"
         id="feOffset16583" />
      <feComposite
         in="SourceGraphic"
         in2="offset"
         operator="over"
         result="composite2"
         id="feComposite16585" />
    </filter>
  </defs>
  <sodipodi:namedview
     id="namedview1963"
     pagecolor="#ffffff"
     bordercolor="#000000"
     borderopacity="0.25"
     inkscape:showpageshadow="2"
     inkscape:pageopacity="0.0"
     inkscape:pagecheckerboard="true"
     inkscape:deskcolor="#d1d1d1"
     showgrid="false"
     inkscape:zoom="2.143662"
     inkscape:cx="161.1728"
     inkscape:cy="185.6636"
     inkscape:window-width="1920"
     inkscape:window-height="1009"
     inkscape:window-x="1920"
     inkscape:window-y="0"
     inkscape:window-maximized="1"
     inkscape:current-layer="g14989" />
  <g
     inkscape:groupmode="layer"
     id="layer1"
     inkscape:label="paths"
     transform="translate(25.870094,-49.296517)"
     style="display:inline">
    <g
       aria-label="EPIPHANY"
       id="text318"
       style="font-size:72px;font-family:'Mr Dafoe';-inkscape-font-specification:'Mr Dafoe';display:inline;fill:#ffffff;stroke:#efb0aa;stroke-width:3;stroke-linecap:round;stroke-linejoin:round;filter:url(#filter16587)">
      <path
         d="m 28.189904,318.24636 v 0 0 0 q 1.8,0 2.664,-1.08 0.864,-1.08 0.792,-2.52 0,-1.44 -0.936,-2.52 -0.936,-1.08 -2.664,-1.08 -9.576,0.144 -27.14399975,-0.144 0.072,-4.392 0.072,-14.616 1.87200005,-0.144 4.82400005,-0.144 2.952,-0.072 6.0479997,-0.072 3.168,0 5.76,0.072 5.04,0.072 7.56,0.072 1.8,0 2.664,-1.08 0.936,-1.08 0.936,-2.52 0,-1.44 -0.936,-2.52 -0.864,-1.08 -2.664,-1.08 -2.016,0 -4.896,0 -2.808,-0.072 -5.904,-0.072 -3.096,-0.072 -5.7599997,-0.072 -4.032,0 -7.56,0.216 v -2.952 q 0,-1.728 -0.072,-6.264 -0.144,-4.464 0.072,-5.472 2.448,0 6.192,-0.072 3.7439997,-0.072 7.7039997,-0.072 4.032,0 7.488,0 3.456,-0.072 5.4,-0.072 1.8,0 2.664,-1.08 0.936,-1.08 0.936,-2.52 0,-1.44 -0.936,-2.52 -0.864,-1.08 -2.664,-1.08 -1.44,0 -4.104,0 -2.664,0 -6.048,0.072 -3.312,0 -6.84,0.072 -3.4559997,0 -6.5519997,0.072 -3.024,0 -5.18400005,0.072 -1.36799995,0.072 -2.30399995,0.936 -1.008,0.288 -1.728,1.08 -0.72,0.792 -0.864,1.8 -0.36,2.16 -0.432,4.824 0,2.664 0,5.328 0.072,2.664 0.072,4.752 -0.072,3.312 -0.072,12.528 0,9.216 -0.144,14.112 0,0.936 0.432,1.8 0,1.44 1.008,2.52 1.08,1.08 2.52,1.08 20.8799997,0.36 30.5999997,0.216 z"
         style="font-family:'Balsamiq Sans';-inkscape-font-specification:'Balsamiq Sans'"
         id="path16727" />
      <path
         d="m 41.653933,315.15036 v 0 0 0 q 0,1.8 1.08,2.736 1.08,0.864 2.52,0.864 1.44,0 2.52,-0.864 1.08,-0.936 1.08,-2.736 0,-3.672 -0.36,-17.496 9,1.008 16.344,-0.504 2.016,-0.36 4.32,-1.224 2.376,-0.864 4.392,-2.304 2.016,-1.44 3.312,-3.528 1.296,-2.16 1.584,-4.896 0.36,-2.808 -1.008,-7.2 -3.528,-9.144 -15.408,-10.8 -6.768,-0.936 -15.192,0.792 -0.648,-0.36 -1.368,-0.432 -1.512,-0.072 -2.664,0.864 -1.08,0.936 -1.224,2.448 -0.72,8.856 -0.432,23.04 0.504,20.52 0.504,21.24 z m 6.696,-24.624 v 0 0 0 q -0.144,-9.216 0.216,-15.552 7.056,-1.368 12.528,-0.648 7.632,1.08 9.576,6.264 0.792,2.736 0.648,3.744 -0.504,4.248 -7.92,5.76 -6.264,1.296 -14.112,0.36 -0.504,0 -0.936,0.072 z"
         style="font-family:'Balsamiq Sans';-inkscape-font-specification:'Balsamiq Sans'"
         id="path16729" />
      <path
         d="m 86.149912,318.67836 v 0 0 0 q 4.392,-0.144 9.936,-0.144 1.8,0 2.664,-1.08 0.936,-1.08 0.936,-2.52 0,-1.44 -0.936,-2.52 -0.864,-1.08 -2.664,-1.08 h -1.44 q 0,-22.248 -0.144,-37.008 h 0.576 q 1.8,0 2.664,-1.08 0.936,-1.08 0.936,-2.52 0.072,-1.44 -0.864,-2.52 -0.864,-1.08 -2.592,-1.08 -5.256,-0.072 -8.928,-0.144 -1.728,0 -2.664,1.08 -0.936,1.08 -1.008,2.52 0,1.44 0.864,2.52 0.864,1.08 2.664,1.08 h 1.152 q 0.144,14.832 0.144,37.224 l -1.584,0.072 q -1.728,0.072 -2.592,1.224 -0.864,1.152 -0.864,2.592 0.072,1.368 1.008,2.448 0.936,1.008 2.736,0.936 z"
         style="font-family:'Balsamiq Sans';-inkscape-font-specification:'Balsamiq Sans'"
         id="path16731" />
      <path
         d="m 109.26187,315.15036 v 0 0 0 q 0,1.8 1.08,2.736 1.08,0.864 2.52,0.864 1.44,0 2.52,-0.864 1.08,-0.936 1.08,-2.736 0,-3.672 -0.36,-17.496 9,1.008 16.344,-0.504 2.016,-0.36 4.32,-1.224 2.376,-0.864 4.392,-2.304 2.016,-1.44 3.312,-3.528 1.296,-2.16 1.584,-4.896 0.36,-2.808 -1.008,-7.2 -3.528,-9.144 -15.408,-10.8 -6.768,-0.936 -15.192,0.792 -0.648,-0.36 -1.368,-0.432 -1.512,-0.072 -2.664,0.864 -1.08,0.936 -1.224,2.448 -0.72,8.856 -0.432,23.04 0.504,20.52 0.504,21.24 z m 6.696,-24.624 v 0 0 0 q -0.144,-9.216 0.216,-15.552 7.056,-1.368 12.528,-0.648 7.632,1.08 9.576,6.264 0.792,2.736 0.648,3.744 -0.504,4.248 -7.92,5.76 -6.264,1.296 -14.112,0.36 -0.504,0 -0.936,0.072 z"
         style="font-family:'Balsamiq Sans';-inkscape-font-specification:'Balsamiq Sans'"
         id="path16733" />
      <path
         d="m 161.60585,315.00636 v 0 0 0 q 0.144,-6.696 -0.144,-18.864 17.064,-0.576 24.84,-0.504 0.216,16.776 0.216,19.296 0,1.8 1.08,2.736 1.08,0.864 2.52,0.864 1.44,0 2.52,-0.864 1.08,-0.936 1.08,-2.736 0,-4.68 -0.144,-13.608 -0.216,-8.856 -0.216,-15.984 0.072,-5.904 0.432,-14.328 0.072,-1.8 -1.008,-2.736 -1.008,-0.936 -2.448,-1.008 -1.368,-0.144 -2.52,0.72 -1.152,0.792 -1.224,2.592 -0.432,8.064 -0.36,17.856 -7.92,-0.072 -24.912,0.504 -0.216,-10.512 0,-18.216 0.072,-1.8 -1.008,-2.736 -1.008,-0.936 -2.448,-0.936 -1.368,-0.072 -2.52,0.792 -1.152,0.864 -1.224,2.592 -0.288,8.496 0.072,23.112 0.36,14.688 0.216,21.312 0,1.728 1.08,2.664 1.08,0.936 2.52,1.008 1.44,0 2.52,-0.864 1.08,-0.864 1.08,-2.664 z"
         style="font-family:'Balsamiq Sans';-inkscape-font-specification:'Balsamiq Sans'"
         id="path16735" />
      <path
         d="m 207.97392,316.37436 v 0 0 0 q 1.44,-3.96 4.68,-13.464 5.544,0 15.264,-0.36 0.36,0 3.312,-0.144 l 5.4,13.968 q 0.72,1.656 2.016,2.088 1.368,0.36 2.736,-0.144 1.368,-0.576 2.016,-1.8 0.648,-1.296 0,-3.024 l -17.928,-44.28 q -0.576,-1.44 -2.016,-1.944 -0.504,-0.432 -1.152,-0.648 -1.44,-0.504 -2.808,0.216 -1.296,0.648 -1.8,2.088 -1.872,5.4 -5.256,14.04 -3.6,8.784 -4.104,10.224 -1.008,2.52 -3.312,9.72 -2.376,7.2 -3.816,10.728 -0.72,1.656 -0.072,2.952 0.72,1.224 2.088,1.8 1.368,0.504 2.736,0.144 1.368,-0.432 2.016,-2.16 z m 7.344,-20.808 v 0 0 0 l 6.408,-16.128 6.552,15.84 q -6.912,0.216 -12.96,0.288 z"
         style="font-family:'Balsamiq Sans';-inkscape-font-specification:'Balsamiq Sans'"
         id="path16737" />
      <path
         d="m 287.89392,318.75036 v 0 0 0 q 1.44,0 2.52,-1.008 1.08,-1.08 1.08,-2.52 0.36,-35.64 0.216,-44.64 0,-1.8 -1.08,-2.664 -1.08,-0.864 -2.52,-0.792 -1.44,0 -2.52,0.936 -1.08,0.936 -1.08,2.664 0.216,11.808 -0.144,35.784 l -2.952,-4.392 -3.384,-5.328 -2.952,-4.68 q -7.056,-10.944 -17.28,-23.688 -0.936,-1.152 -2.448,-1.296 -1.512,-0.144 -2.664,0.648 -1.08,1.008 -1.44,2.016 -0.432,1.152 -0.504,2.232 -0.288,8.208 0.072,23.4 0.36,15.264 0.36,19.584 0,1.8 1.08,2.736 1.08,0.864 2.52,0.864 1.44,0 2.52,-0.864 1.08,-0.936 1.08,-2.736 0,-5.544 -0.288,-17.208 -0.36,-11.664 -0.288,-17.712 6.336,8.352 11.232,15.912 l 3.312,5.184 3.6,5.688 q 1.368,2.16 3.456,5.184 2.16,2.952 4.104,5.328 1.368,1.584 3.456,1.224 0.432,0.144 0.936,0.144 z"
         style="font-family:'Balsamiq Sans';-inkscape-font-specification:'Balsamiq Sans'"
         id="path16739" />
      <path
         d="m 315.97396,315.29436 v 0 0 0 q 0.144,1.728 1.296,2.52 1.224,0.792 2.664,0.72 1.44,-0.144 2.376,-1.152 1.008,-1.008 0.864,-2.808 -0.288,-1.944 -0.36,-8.712 -0.072,-4.68 -0.144,-6.264 0.072,-0.144 0.144,-0.36 1.584,-3.312 5.184,-8.496 3.6,-5.112 4.896,-7.128 l 3.384,-5.832 q 2.304,-4.032 3.24,-5.472 1.008,-1.44 0.576,-2.808 -0.36,-1.368 -1.584,-2.16 -1.152,-0.792 -2.592,-0.648 -1.368,0.144 -2.304,1.584 -1.512,2.232 -3.6,5.904 -2.808,4.896 -3.312,5.688 -1.008,1.656 -3.744,5.544 -2.736,3.888 -4.104,6.12 -10.224,-16.776 -13.464,-22.824 -0.864,-1.584 -2.304,-1.8 -1.368,-0.288 -2.592,0.432 -1.224,0.648 -1.8,1.944 -0.504,1.296 0.36,2.88 2.232,4.176 4.896,8.64 l 11.52,18.936 q 0.072,1.584 0.144,6.192 0.072,7.272 0.36,9.36 z"
         style="font-family:'Balsamiq Sans';-inkscape-font-specification:'Balsamiq Sans'"
         id="path16741" />
    </g>
    <g
       id="g13575"
       inkscape:export-filename="../Documents/AppAcademy/projects/epiphany/frontend/public/bulb.svg"
       inkscape:export-xdpi="96"
       inkscape:export-ydpi="96"
       style="display:inline">
      <path
         style="fill:#d2f1e4;fill-opacity:1;stroke:#6c93a2;stroke-width:3;stroke-linecap:round;stroke-linejoin:round;stroke-opacity:1"
         d="m 166.88209,50.796519 c -29.28319,0 -53.73671,21.61136 -53.73671,49.497811 0,31.58738 34.65516,45.21968 34.65516,61.35256 -4.76642,6.38832 0,10.42689 0,10.42689 -5.3097,5.6783 0,10.42689 0,10.42689 -5.89259,6.60927 0,10.42689 0,10.42689 h 7.26229 l 11.6414,20.16349 11.64139,-20.16349 h 7.61802 c 0,0 5.74906,-4.77706 0,-10.42689 0,0 5.0294,-5.39749 0,-10.42689 4.49622,-6.09036 0,-10.42689 0,-10.42689 0,-20.27661 33.35314,-27.06424 33.35314,-61.35256 0,-28.792418 -22.83974,-49.497811 -52.43469,-49.497811 z"
         id="path2100" />
      <path
         id="path5223"
         style="fill:#9ac1ba;stroke-width:3.68938;stroke-linecap:round;stroke-linejoin:round"
         d="m 200.98026,104.72372 a 34.388306,34.388306 0 0 1 -34.38831,34.3883 34.388306,34.388306 0 0 1 -34.38831,-34.3883 34.388306,34.388306 0 0 1 34.38831,-34.388309 34.388306,34.388306 0 0 1 34.38831,34.388309 z" />
      <path
         style="fill:none;fill-opacity:1;stroke:#6c93a2;stroke-width:3;stroke-linecap:round;stroke-linejoin:round;stroke-opacity:1"
         d="m 154.93917,97.792836 c -4.88329,-4.626623 -8.02801,-9.328702 -11.90276,-9.095456 0,0 -9.86474,0.457121 -12.11272,11.84573 2.26646,9.87762 11.66892,11.26679 11.66892,11.26679 10.02162,-3.97654 12.34656,-14.017064 12.34656,-14.017064 z"
         id="path2110"
         sodipodi:nodetypes="ccccc" />
      <path
         style="fill:none;fill-opacity:1;stroke:#6c93a2;stroke-width:3;stroke-linecap:round;stroke-linejoin:round;stroke-opacity:1"
         d="m 178.24562,97.792836 c 4.88327,-4.626623 8.02799,-9.328702 11.90276,-9.095456 0,0 9.86474,0.457121 12.11272,11.84573 -2.26646,9.87762 -11.66893,11.26679 -11.66893,11.26679 -10.02163,-3.97654 -12.34656,-14.017064 -12.34655,-14.017064 z"
         id="path2112"
         sodipodi:nodetypes="ccccc" />
      <path
         style="fill:none;stroke:#6c93a2;stroke-width:3;stroke-linecap:round;stroke-linejoin:round;stroke-opacity:1"
         d="M 98.419553,71.787079 80.698373,61.555755"
         id="path2214" />
      <path
         style="fill:none;stroke:#6c93a2;stroke-width:3;stroke-linecap:round;stroke-linejoin:round;stroke-opacity:1"
         d="M 98.529393,104.43351 H 80.997653"
         id="path2216" />
      <path
         style="fill:none;stroke:#6c93a2;stroke-width:3;stroke-linecap:round;stroke-linejoin:round;stroke-opacity:1"
         d="m 98.898073,135.80815 -18.10827,10.45482"
         id="path2218" />
      <path
         style="fill:none;stroke:#6c93a2;stroke-width:3;stroke-linecap:round;stroke-linejoin:round;stroke-opacity:1"
         d="m 234.89427,136.50877 17.85609,10.30922"
         id="path2220" />
      <path
         style="fill:none;stroke:#6c93a2;stroke-width:3;stroke-linecap:round;stroke-linejoin:round;stroke-opacity:1"
         d="m 235.17291,104.48105 h 17.97625"
         id="path2222" />
      <path
         style="fill:none;stroke:#6c93a2;stroke-width:3;stroke-linecap:round;stroke-linejoin:round;stroke-opacity:1"
         d="M 235.05864,72.354427 253.1551,61.906433"
         id="path2224" />
      <path
         style="fill:#efb0aa;fill-opacity:1;stroke:#6c93a2;stroke-width:3;stroke-linecap:round;stroke-linejoin:round;stroke-opacity:1"
         d="m 154.94217,88.534173 h 23.30645 m -23.30645,0 c 0,-6.934441 -0.4764,-16.784019 11.77099,-16.784019 11.04664,0 11.53546,8.684736 11.53546,16.784019"
         id="path5918"
         sodipodi:nodetypes="cccsc" />
      <path
         style="fill:none;stroke:#6c93a2;stroke-width:3;stroke-linecap:round;stroke-linejoin:round;stroke-opacity:1"
         d="m 154.94217,88.534173 -0.003,9.258663"
         id="path11243"
         sodipodi:nodetypes="cc" />
      <path
         style="fill:none;stroke:#6c93a2;stroke-width:3;stroke-linecap:round;stroke-linejoin:round;stroke-opacity:1"
         d="m 178.24862,88.534173 -0.003,9.258663"
         id="path11245"
         sodipodi:nodetypes="cc" />
      <path
         style="fill:#efb0aa;fill-opacity:1;stroke:#6c93a2;stroke-width:3;stroke-linecap:round;stroke-linejoin:round;stroke-opacity:1"
         d="m 154.94217,88.534173 h 23.30645 m -23.30645,0 c 0,-6.934441 -0.4764,-16.784019 11.77099,-16.784019 11.04664,0 11.53546,8.684736 11.53546,16.784019"
         id="path11254"
         sodipodi:nodetypes="cccsc" />
      <path
         style="fill:#6c93a2;fill-opacity:1;fill-rule:nonzero;stroke:#6c93a2;stroke-width:3;stroke-linecap:round;stroke-linejoin:round;stroke-opacity:1"
         d="m 160.88354,203.00931 h 11.64139 l -5.8207,10.08174 z"
         id="path11913" />
      <path
         style="fill:#9ac1ba;fill-opacity:1;stroke:#6c93a2;stroke-width:3;stroke-linecap:round;stroke-linejoin:round;stroke-opacity:1"
         d="m 206.42856,151.84523 c -4.76642,6.38832 0,10.42689 0,10.42689 -5.3097,5.6783 0,10.42689 0,10.42689 -5.89259,6.60927 0,10.42689 0,10.42689 h 38.1631 c 0,0 5.74906,-4.77706 0,-10.42689 0,0 5.0294,-5.39749 0,-10.42689 4.49622,-6.09036 0,-10.42689 0,-10.42689 0,0 -38.01059,0.002 -38.1631,0 z"
         id="path12185"
         sodipodi:nodetypes="ccccccccc"
         clip-path="url(#clipPath12828)"
         transform="translate(-58.628022,9.80166)" />
      <path
         style="display:inline;fill:none;stroke:#6c93a2;stroke-width:3;stroke-linecap:round;stroke-linejoin:round;stroke-opacity:1"
         d="m 147.80054,172.07378 h 38.1631"
         id="path2090" />
      <path
         style="display:inline;fill:none;stroke:#6c93a2;stroke-width:3;stroke-linecap:round;stroke-linejoin:round;stroke-opacity:1"
         d="m 147.80054,182.50067 h 38.1631"
         id="path2092" />
      <path
         style="display:inline;fill:none;stroke:#6c93a2;stroke-width:3;stroke-linecap:round;stroke-linejoin:round;stroke-opacity:1"
         d="m 147.80054,192.92756 h 38.1631"
         id="path2094" />
      <path
         style="display:inline;fill:#9ac1ba;fill-opacity:1;stroke:#6c93a2;stroke-width:3;stroke-linecap:round;stroke-linejoin:round;stroke-opacity:1"
         d="m 178.24261,161.64689 h 7.72103"
         id="path11480" />
      <path
         style="display:inline;fill:#9ac1ba;fill-opacity:1;stroke:#6c93a2;stroke-width:3;stroke-linecap:round;stroke-linejoin:round;stroke-opacity:1"
         d="m 147.80054,161.64689 h 7.13563"
         id="path11482"
         sodipodi:nodetypes="cc" />
      <path
         id="rect11546"
         style="display:inline;fill:#d2f1e4;stroke:#6c93a2;stroke-width:3;stroke-linecap:round;stroke-linejoin:round"
         d="m 154.93918,97.792839 h 23.30345 v 63.854051 h -23.30345 z" />
      <path
         style="display:inline;fill:none;fill-opacity:1;stroke:#6c93a2;stroke-width:3;stroke-linecap:round;stroke-linejoin:round;stroke-opacity:1"
         d="M 166.92673,97.792841 V 161.64689"
         id="path11310" />
    </g>
    <g
       id="g14989"
       transform="translate(-0.49216595,2.6283707)"
       style="display:inline">
      <g
         id="g19860"
         transform="translate(-74.581099,14.213377)">
        <path
           id="path19846"
           style="display:inline;fill:#ffffff;fill-opacity:1;stroke:#6c93a2;stroke-width:3;stroke-linecap:round;stroke-linejoin:round;stroke-opacity:1"
           d="m 234.05356,209.03487 c -23.94241,-20.71701 -41.27069,-35.27184 -73.95027,-36.12299 -24.0747,0 -45.7145,22.17012 -45.7145,22.17012 l 14.86515,-1.70837 c 0,0 12.05833,-5.61505 30.32058,-5.61505 25.86327,1.4661 45.01013,14.03203 69.107,25.63288 z m 21.2752,4.35659 c 24.09687,-11.60085 43.24373,-24.16678 69.10701,-25.63288 18.26225,0 30.32057,5.61505 30.32057,5.61505 l 14.86516,1.70837 c 0,0 -21.63981,-22.17012 -45.7145,-22.17012 -32.67959,0.85115 -50.00787,15.40598 -73.95028,36.12299 z"
           sodipodi:nodetypes="cccccccccccccc" />
        <path
           id="path19848"
           style="display:inline;fill:#ffffff;fill-opacity:1;stroke:#6c93a2;stroke-width:3;stroke-linecap:round;stroke-linejoin:round;stroke-opacity:1"
           d="m 354.75634,193.37363 14.94744,10.62714 c 0,0 -26.19377,-1.46948 -48.07453,0.50679 -22.34538,1.84901 -42.61434,8.12331 -63.84824,12.57164 M 129.25394,193.37363 c 0,0 12.05833,-5.61505 30.32058,-5.61505 25.86327,1.4661 45.01013,14.03203 69.107,25.63288 m -99.42758,-20.01783 -14.94744,10.62714 c 0,0 26.19377,-1.46948 48.07453,0.50679 22.34538,1.84901 42.61434,8.12331 63.84824,12.57164 l 2.45225,-3.68774 m 126.07482,-20.01783 c 0,0 -12.05832,-5.61505 -30.32057,-5.61505 -25.86328,1.4661 -45.01014,14.03203 -69.10701,25.63288 l 2.45225,3.68774"
           sodipodi:nodetypes="cccccccccccccc" />
        <path
           id="path19850"
           style="display:inline;fill:#ffffff;fill-opacity:1;stroke:#6c93a2;stroke-width:3;stroke-linecap:round;stroke-linejoin:round;stroke-opacity:1"
           d="m 259.221,220.2652 h 111.47501 m -145.90673,0 H 113.31427 m 0,0 c 0,-9.62097 25.78075,-15.38464 30.72495,-16.74506 l 18.34181,0.98742 c 22.34538,1.84901 42.61434,8.12331 63.84824,12.57164 l -1.43999,3.186 m 145.90673,0 c 0,-9.62097 -23.67783,-15.38464 -28.62203,-16.74506 l -20.44473,0.98742 c -22.34538,1.84901 -42.61434,8.12331 -63.84824,12.57164 l 1.43999,3.186"
           sodipodi:nodetypes="cccccccccccccc" />
      </g>
      <path
         style="display:inline;fill:#f9c8e0;fill-opacity:1;fill-rule:nonzero;stroke:none;stroke-width:3;stroke-linecap:round;stroke-linejoin:round;stroke-opacity:1"
         d="m 152.56061,217.30581 c -21.01351,-7.8764 -41.16841,-18.61254 -61.159262,-18.88756 -17.855841,0 -24.91737,5.51874 -24.91737,5.51874 33.673212,-7.32778 69.333142,14.49063 69.333142,14.49063 0,0 -33.30957,-9.65594 -47.64013,-9.65594 -5.415035,0 -30.422802,-0.96646 -48.451594,9.44247 h 2e-6 l 27.6298,-0.48063 c 0,0 -25.790678,6.17831 -28.62203,16.74506 H 150.20817 l 9.26428,-11.23033 z"
         id="path12843"
         sodipodi:nodetypes="cccccccccccc" />
      <path
         style="display:inline;fill:#f9c8e0;fill-opacity:1;fill-rule:nonzero;stroke:none;stroke-width:3;stroke-linecap:round;stroke-linejoin:round;stroke-opacity:1"
         d="m 182.28746,217.30581 c 21.01351,-7.8764 41.16841,-18.61254 61.15926,-18.88756 17.85584,0 24.91737,5.51874 24.91737,5.51874 -33.67321,-7.32778 -69.33314,14.49063 -69.33314,14.49063 0,0 33.30957,-9.65594 47.64013,-9.65594 5.41503,0 30.4228,-0.96646 48.45159,9.44247 v 0 l -27.6298,-0.48063 c 0,0 25.79068,6.17831 28.62203,16.74506 h -111.475 l -9.26428,-11.23033 z"
         id="path13544"
         sodipodi:nodetypes="cccccccccccc" />
      <path
         id="path477"
         style="display:inline;fill:none;stroke:#6c93a2;stroke-width:3;stroke-linecap:round;stroke-linejoin:round;stroke-opacity:1"
         d="m 267.49288,217.73352 c 4.9442,1.36042 28.62203,7.12409 28.62203,16.74506 m -15.93967,-26.89157 14.94744,10.62714 c 0,0 -26.19377,-1.46948 -48.07453,0.50679 -22.34538,1.84901 -42.61434,8.12331 -63.84824,12.57164 m -7.82429,-8.04433 c 23.94241,-20.71701 41.27069,-35.27184 73.95028,-36.12299 24.07469,0 45.7145,22.17012 45.7145,22.17012 l -14.86516,-1.70837 c 0,0 -12.05832,-5.61505 -30.32057,-5.61505 -25.86328,1.4661 -45.01014,14.03203 -69.10701,25.63288 m -13.32362,-6.17074 c 8.14983,0 14.06286,4.75558 17.21586,13.04448 h 111.47501 c 9.99849,0 10.01237,14.3725 0,14.3725 H 192.06995 c -3.36316,3.23467 -6.23668,3.60075 -6.23668,3.60075 H 166.3402 M 54.672839,207.58701 39.725396,218.21415 c 0,0 26.193774,-1.46948 48.07453,0.50679 22.345384,1.84901 42.614344,8.12331 63.848244,12.57164 m 7.82429,-8.04433 c -23.94241,-20.71701 -41.27069,-35.27184 -73.950274,-36.12299 -24.074697,0 -45.7145,22.17012 -45.7145,22.17012 l 14.865153,-1.70837 c 0,0 12.058327,-5.61505 30.320577,-5.61505 25.863274,1.4661 45.010134,14.03203 69.107004,25.63288 m 13.32362,-6.17074 c -8.14983,0 -14.06286,4.75558 -17.21586,13.04448 H 38.733166 c -10.018518,0 -10.01975,14.3725 0,14.3725 H 140.61045 c 3.36316,3.23467 6.23668,3.60075 6.23668,3.60075 H 166.3402 M 69.458114,217.73352 c -4.944196,1.36042 -30.724946,7.12409 -30.724946,16.74506"
         sodipodi:nodetypes="cccccccccccccccccccccccccccccccccccccc" />
      <path
         id="path14309"
         style="display:inline;fill:#f9c8e0;fill-opacity:1;stroke:#6c93a2;stroke-width:3;stroke-linecap:round;stroke-linejoin:round;stroke-opacity:1"
         d="m 167.42404,221.4341 c 8.14983,0 14.06286,4.75558 17.21586,13.04448 M 167.42404,221.4341 c -8.14983,0 -14.06286,4.75558 -17.21586,13.04448 h 34.43172"
         sodipodi:nodetypes="cccc" />
      <path
         id="path14665"
         style="display:inline;fill:none;fill-opacity:1;fill-rule:nonzero;stroke:#6c93a2;stroke-width:3;stroke-linecap:round;stroke-linejoin:round;stroke-opacity:1"
         d="m 267.49288,217.73352 c 4.9442,1.36042 28.62203,7.12409 28.62203,16.74506 m -15.93967,-26.89157 14.94744,10.62714 c 0,0 -26.19377,-1.46948 -48.07453,0.50679 -22.34538,1.84901 -42.61434,8.12331 -63.84824,12.57164 m -7.82429,-8.04433 c 23.94241,-20.71701 41.27069,-35.27184 73.95028,-36.12299 24.07469,0 45.7145,22.17012 45.7145,22.17012 l -14.86516,-1.70837 c 0,0 -12.05832,-5.61505 -30.32057,-5.61505 -25.86328,1.4661 -45.01014,14.03203 -69.10701,25.63288 m -13.32362,-6.17074 c 8.14983,0 14.06286,4.75558 17.21586,13.04448 h 111.47501 c 9.99849,0 10.01237,14.3725 0,14.3725 H 192.06995 c -3.36316,3.23467 -6.23668,3.60075 -6.23668,3.60075 H 166.3402 M 54.672839,207.58701 39.725396,218.21415 c 0,0 26.193774,-1.46948 48.07453,0.50679 22.345384,1.84901 42.614344,8.12331 63.848244,12.57164 m 7.82429,-8.04433 c -23.94241,-20.71701 -41.27069,-35.27184 -73.950274,-36.12299 -24.074697,0 -45.7145,22.17012 -45.7145,22.17012 l 14.865153,-1.70837 c 0,0 12.058327,-5.61505 30.320577,-5.61505 25.863274,1.4661 45.010134,14.03203 69.107004,25.63288 m 13.32362,-6.17074 c -8.14983,0 -14.06286,4.75558 -17.21586,13.04448 H 38.733166 c -10.018518,0 -10.01975,14.3725 0,14.3725 H 140.61045 c 3.36316,3.23467 6.23668,3.60075 6.23668,3.60075 H 166.3402 M 69.458114,217.73352 c -4.944196,1.36042 -30.724946,7.12409 -30.724946,16.74506"
         sodipodi:nodetypes="cccccccccccccccccccccccccccccccccccccc" />
      <path
         id="path14667"
         style="display:inline;fill:#f9c8e0;fill-opacity:1;stroke:#6c93a2;stroke-width:3;stroke-linecap:round;stroke-linejoin:round;stroke-opacity:1"
         d="m 167.42404,221.4341 c 8.14983,0 14.06286,4.75558 17.21586,13.04448 M 167.42404,221.4341 c -8.14983,0 -14.06286,4.75558 -17.21586,13.04448 h 34.43172"
         sodipodi:nodetypes="cccc" />
      <path
         id="path18314"
         style="display:inline;fill:#d2f1e4;fill-opacity:1;stroke:#6c93a2;stroke-width:3;stroke-linecap:round;stroke-linejoin:round;stroke-opacity:1"
         d="m 150.20818,234.47858 h 145.90673 c 9.99849,0 10.01237,14.3725 0,14.3725 H 192.06995 c -3.36316,3.23467 -6.23668,3.60075 -6.23668,3.60075 H 166.3402 M 150.20818,234.47858 H 38.733166 c -10.018518,0 -10.01975,14.3725 0,14.3725 H 140.61045 c 3.36316,3.23467 6.23668,3.60075 6.23668,3.60075 h 19.49307"
         sodipodi:nodetypes="cccccccccccc" />
      <path
         id="path18626"
         style="display:inline;fill:#9ac1ba;fill-opacity:1;fill-rule:evenodd;stroke:#6c93a2;stroke-width:3;stroke-linecap:round;stroke-linejoin:round;stroke-dasharray:none;stroke-opacity:1"
         d="m 166.3402,252.45183 h 19.49307 c 0,0 2.87352,-0.36608 6.23668,-3.60075 h 104.04496 c 7.53442,0 7.49658,-7.52299 7.49658,-7.52299 M 166.3402,252.45183 h -19.49307 c 0,0 -2.87352,-0.36608 -6.23668,-3.60075 H 38.733166 c -7.549766,0 -7.506995,-7.52299 -7.506995,-7.52299 H 303.61149"
         sodipodi:nodetypes="ccccccccccc" />
      <path
         id="path14286"
         style="display:inline;fill:#6c93a2;stroke:#6c93a2;stroke-width:3.10454;stroke-linecap:round;stroke-linejoin:round"
         transform="scale(1,-1)"
         d="m 150.14256,-234.64102 a 17.16745,11.739655 0 0 1 17.16745,-11.73966 17.16745,11.739655 0 0 1 17.16745,11.73966 h -17.16745 z" />
      <g
         id="g18253"
         transform="translate(8.166313)"
         style="display:inline">
        <path
           id="path18249"
           style="display:inline;fill:none;stroke:#6c93a2;stroke-width:3;stroke-linecap:round;stroke-linejoin:round;stroke-opacity:1"
           d="m 259.32657,217.73352 c 4.9442,1.36042 28.62203,7.12409 28.62203,16.74506 m -15.93967,-26.89157 14.94744,10.62714 c 0,0 -26.19377,-1.46948 -48.07453,0.50679 -22.34538,1.84901 -42.61434,8.12331 -63.84824,12.57164 m -7.82429,-8.04433 c 23.94241,-20.71701 41.27069,-35.27184 73.95028,-36.12299 24.07469,0 45.7145,22.17012 45.7145,22.17012 l -14.86516,-1.70837 c 0,0 -12.05832,-5.61505 -30.32057,-5.61505 -25.86328,1.4661 -45.01014,14.03203 -69.10701,25.63288 m -13.32362,-6.17074 c 8.14983,0 14.06286,4.75558 17.21586,13.04448 H 287.9486 c 9.99849,0 10.01237,14.3725 0,14.3725 H 183.90364 c -3.36316,3.23467 -6.23668,3.60075 -6.23668,3.60075 H 158.17389 M 46.506526,207.58701 31.559083,218.21415 c 0,0 26.193774,-1.46948 48.07453,0.50679 22.345387,1.84901 42.614347,8.12331 63.848247,12.57164 m 7.82429,-8.04433 c -23.94241,-20.71701 -41.27069,-35.27184 -73.950277,-36.12299 -24.074697,0 -45.7145,22.17012 -45.7145,22.17012 l 14.865153,-1.70837 c 0,0 12.058327,-5.61505 30.320577,-5.61505 25.863277,1.4661 45.010137,14.03203 69.107007,25.63288 m 13.32362,-6.17074 c -8.14983,0 -14.06286,4.75558 -17.21586,13.04448 H 30.566853 c -10.018518,0 -10.01975,14.3725 0,14.3725 H 132.44414 c 3.36316,3.23467 6.23668,3.60075 6.23668,3.60075 h 19.49307 M 61.291801,217.73352 c -4.944196,1.36042 -30.724946,7.12409 -30.724946,16.74506"
           sodipodi:nodetypes="cccccccccccccccccccccccccccccccccccccc" />
        <path
           id="path18251"
           style="display:inline;fill:#f9c8e0;fill-opacity:1;stroke:#6c93a2;stroke-width:3;stroke-linecap:round;stroke-linejoin:round;stroke-opacity:1"
           d="m 159.25773,221.4341 c 8.14983,0 14.06286,4.75558 17.21586,13.04448 M 159.25773,221.4341 c -8.14983,0 -14.06286,4.75558 -17.21586,13.04448 h 34.43172"
           sodipodi:nodetypes="cccc" />
      </g>
      <path
         id="path14288"
         style="display:inline;fill:#6c93a2;stroke:#6c93a2;stroke-width:3;stroke-linecap:round;stroke-linejoin:round"
         d="m 160.41583,235.93644 a 7.0486155,6.2225394 0 0 1 2.5536,-6.19814 7.0486155,6.2225394 0 0 1 7.42991,-0.69031 7.0486155,6.2225394 0 0 1 3.95929,5.59303" />
    </g>
    <g
       aria-label="WHATEVER COMES TO MIND"
       id="text15879"
       style="font-size:20px;font-family:'Mr Dafoe';-inkscape-font-specification:'Mr Dafoe';letter-spacing:2.5px;display:inline;fill:#6c93a2;stroke:#efb0aa;stroke-width:3;stroke-linecap:round;stroke-linejoin:round"
       inkscape:export-filename="../Documents/AppAcademy/projects/epiphany/frontend/public/epiphany.svg"
       inkscape:export-xdpi="96"
       inkscape:export-ydpi="96">
      <path
         d="m 7.9814376,343.12835 v 0 0 0 q 0.4,0.12 0.76,-0.08 0.36,-0.2 0.48,-0.6 0.32,-1.08 0.76,-2.42 l 0.7200004,-2.18 0.88,-2.5 0.74,-2.68 q 1.38,4.32 3.16,9.64 0.08,0.2 0.22,0.36 0.2,0.32 0.56,0.44 0.4,0.12 0.76,-0.08 0.38,-0.2 0.5,-0.58 l 3.76,-12.5 q 0.14,-0.46 -0.08,-0.78 -0.22,-0.32 -0.6,-0.44 -0.38,-0.12 -0.74,0.04 -0.36,0.14 -0.5,0.62 l -2.88,10.06 q -1.76,-5.48 -3.14,-9.72 0,-0.32 -0.2,-0.58 -0.18,-0.26 -0.5,-0.36 -0.16,-0.04 -0.28,-0.04 -0.12,0 -0.18,0.04 -0.68,0.22 -0.72,0.92 -0.5,1.58 -1.5200004,4.52 l -1.56,4.72 q -1.08,-4.96 -2.36,-9.48 -0.14,-0.48 -0.5,-0.62 -0.36,-0.16 -0.74,-0.04 -0.38,0.1 -0.6,0.42 -0.22,0.32 -0.08,0.8 1.82,6.34 3.08,12.08 0.04,0.14 0.1,0.26 0.12,0.6 0.7,0.76 z"
         style="font-family:'Balsamiq Sans';-inkscape-font-specification:'Balsamiq Sans';stroke:none"
         id="path16744" />
      <path
         d="m 28.221424,342.16835 v 0 0 0 q 0.04,-1.86 -0.04,-5.24 4.74,-0.16 6.9,-0.14 0.06,4.66 0.06,5.36 0,0.5 0.3,0.76 0.3,0.24 0.7,0.24 0.4,0 0.7,-0.24 0.3,-0.26 0.3,-0.76 0,-1.3 -0.04,-3.78 -0.06,-2.46 -0.06,-4.44 0.02,-1.64 0.12,-3.98 0.02,-0.5 -0.28,-0.76 -0.28,-0.26 -0.68,-0.28 -0.38,-0.04 -0.7,0.2 -0.32,0.22 -0.34,0.72 -0.12,2.24 -0.1,4.96 -2.2,-0.02 -6.92,0.14 -0.06,-2.92 0,-5.06 0.02,-0.5 -0.28,-0.76 -0.28,-0.26 -0.68,-0.26 -0.38,-0.02 -0.7,0.22 -0.32,0.24 -0.34,0.72 -0.08,2.36 0.02,6.42 0.1,4.08 0.06,5.92 0,0.48 0.3,0.74 0.3,0.26 0.7,0.28 0.4,0 0.7,-0.24 0.3,-0.24 0.3,-0.74 z"
         style="font-family:'Balsamiq Sans';-inkscape-font-specification:'Balsamiq Sans';stroke:none"
         id="path16746" />
      <path
         d="m 43.601442,342.54835 v 0 0 0 q 0.4,-1.1 1.3,-3.74 1.54,0 4.24,-0.1 0.1,0 0.92,-0.04 l 1.5,3.88 q 0.2,0.46 0.56,0.58 0.38,0.1 0.76,-0.04 0.38,-0.16 0.56,-0.5 0.18,-0.36 0,-0.84 l -4.98,-12.3 q -0.16,-0.4 -0.56,-0.54 -0.14,-0.12 -0.32,-0.18 -0.4,-0.14 -0.78,0.06 -0.36,0.18 -0.5,0.58 -0.52,1.5 -1.46,3.9 -1,2.44 -1.14,2.84 -0.28,0.7 -0.92,2.7 -0.66,2 -1.06,2.98 -0.2,0.46 -0.02,0.82 0.2,0.34 0.58,0.5 0.38,0.14 0.76,0.04 0.38,-0.12 0.56,-0.6 z m 2.04,-5.78 v 0 0 0 l 1.78,-4.48 1.82,4.4 q -1.92,0.06 -3.6,0.08 z"
         style="font-family:'Balsamiq Sans';-inkscape-font-specification:'Balsamiq Sans';stroke:none"
         id="path16748" />
      <path
         d="m 60.94143,342.14835 v 0 0 0 q 0.02,-0.74 -0.02,-5.72 -0.02,-3.64 0.12,-5.56 2.42,0 3.84,-0.02 0.5,0 0.74,-0.3 0.24,-0.3 0.22,-0.7 0,-0.4 -0.26,-0.7 -0.26,-0.3 -0.74,-0.3 -1.72,0.02 -4.78,0 -3.06,-0.02 -4.78,0.04 -0.48,0.02 -0.72,0.34 -0.24,0.32 -0.24,0.72 0.02,0.38 0.28,0.68 0.26,0.28 0.76,0.26 1.5,-0.06 3.68,-0.04 -0.14,1.98 -0.12,5.6 0.04,4.96 0.02,5.66 0,0.48 0.3,0.74 0.3,0.26 0.7,0.28 0.4,0 0.7,-0.24 0.3,-0.24 0.3,-0.74 z"
         style="font-family:'Balsamiq Sans';-inkscape-font-specification:'Balsamiq Sans';stroke:none"
         id="path16750" />
      <path
         d="m 80.001427,343.06835 v 0 0 0 q 0.5,0 0.74,-0.3 0.24,-0.3 0.22,-0.7 0,-0.4 -0.26,-0.7 -0.26,-0.3 -0.74,-0.3 -2.66,0.04 -7.54,-0.04 0.02,-1.22 0.02,-4.06 0.52,-0.04 1.34,-0.04 0.82,-0.02 1.68,-0.02 0.88,0 1.6,0.02 1.4,0.02 2.1,0.02 0.5,0 0.74,-0.3 0.26,-0.3 0.26,-0.7 0,-0.4 -0.26,-0.7 -0.24,-0.3 -0.74,-0.3 -0.56,0 -1.36,0 -0.78,-0.02 -1.64,-0.02 -0.86,-0.02 -1.6,-0.02 -1.12,0 -2.1,0.06 v -0.82 q 0,-0.48 -0.02,-1.74 -0.04,-1.24 0.02,-1.52 0.68,0 1.72,-0.02 1.04,-0.02 2.14,-0.02 1.12,0 2.08,0 0.96,-0.02 1.5,-0.02 0.5,0 0.74,-0.3 0.26,-0.3 0.26,-0.7 0,-0.4 -0.26,-0.7 -0.24,-0.3 -0.74,-0.3 -0.4,0 -1.14,0 -0.74,0 -1.68,0.02 -0.92,0 -1.9,0.02 -0.96,0 -1.82,0.02 -0.84,0 -1.44,0.02 -0.38,0.02 -0.64,0.26 -0.28,0.08 -0.48,0.3 -0.2,0.22 -0.24,0.5 -0.1,0.6 -0.12,1.34 0,0.74 0,1.48 0.02,0.74 0.02,1.32 -0.02,0.92 -0.02,3.48 0,2.56 -0.04,3.92 0,0.26 0.12,0.5 0,0.4 0.28,0.7 0.3,0.3 0.7,0.3 5.8,0.1 8.5,0.06 z"
         style="font-family:'Balsamiq Sans';-inkscape-font-specification:'Balsamiq Sans';stroke:none"
         id="path16752" />
      <path
         d="m 90.041435,343.10835 v 0 0 0 q 0.38,0.16 0.76,0 0.38,-0.16 0.54,-0.54 0.74,-1.76 2.42,-6.14 1.5,-4.04 2.46,-6.22 0.2,-0.46 0.02,-0.8 -0.18,-0.34 -0.54,-0.5 -0.36,-0.16 -0.74,-0.04 -0.36,0.1 -0.58,0.54 -1,2.3 -2.5,6.32 l -1.48,3.84 q -0.8,-1.9 -2.1,-5.34 l -1.7,-4.82 q -0.2,-0.46 -0.58,-0.58 -0.36,-0.12 -0.72,0.02 -0.36,0.14 -0.56,0.48 -0.18,0.34 -0.02,0.8 l 1.38,3.98 1.68,4.28 0.76,2 q 0.94,2.5 1.5,2.72 z"
         style="font-family:'Balsamiq Sans';-inkscape-font-specification:'Balsamiq Sans';stroke:none"
         id="path16754" />
      <path
         d="m 110.54144,343.06835 v 0 0 0 q 0.5,0 0.74,-0.3 0.24,-0.3 0.22,-0.7 0,-0.4 -0.26,-0.7 -0.26,-0.3 -0.74,-0.3 -2.66,0.04 -7.54,-0.04 0.02,-1.22 0.02,-4.06 0.52,-0.04 1.34,-0.04 0.82,-0.02 1.68,-0.02 0.88,0 1.6,0.02 1.4,0.02 2.1,0.02 0.5,0 0.74,-0.3 0.26,-0.3 0.26,-0.7 0,-0.4 -0.26,-0.7 -0.24,-0.3 -0.74,-0.3 -0.56,0 -1.36,0 -0.78,-0.02 -1.64,-0.02 -0.86,-0.02 -1.6,-0.02 -1.12,0 -2.1,0.06 v -0.82 q 0,-0.48 -0.02,-1.74 -0.04,-1.24 0.02,-1.52 0.68,0 1.72,-0.02 1.04,-0.02 2.14,-0.02 1.12,0 2.08,0 0.96,-0.02 1.5,-0.02 0.5,0 0.74,-0.3 0.26,-0.3 0.26,-0.7 0,-0.4 -0.26,-0.7 -0.24,-0.3 -0.74,-0.3 -0.4,0 -1.14,0 -0.74,0 -1.68,0.02 -0.92,0 -1.9,0.02 -0.96,0 -1.82,0.02 -0.84,0 -1.44,0.02 -0.38,0.02 -0.64,0.26 -0.28,0.08 -0.48,0.3 -0.2,0.22 -0.24,0.5 -0.1,0.6 -0.12,1.34 0,0.74 0,1.48 0.02,0.74 0.02,1.32 -0.02,0.92 -0.02,3.48 0,2.56 -0.04,3.92 0,0.26 0.12,0.5 0,0.4 0.28,0.7 0.3,0.3 0.7,0.3 5.8,0.1 8.5,0.06 z"
         style="font-family:'Balsamiq Sans';-inkscape-font-specification:'Balsamiq Sans';stroke:none"
         id="path16756" />
      <path
         d="m 126.24144,342.46835 q 0.14,0.48 0.5,0.64 0.36,0.14 0.74,0.02 0.38,-0.12 0.6,-0.44 0.22,-0.32 0.08,-0.78 -0.2,-0.66 -0.46,-1.54 -0.26,-0.88 -0.58,-1.7 -0.3,-0.84 -0.66,-1.38 -0.38,-0.56 -0.9,-0.96 2.44,-1.08 2.52,-3.26 0.04,-0.8 -0.24,-1.44 -0.28,-0.66 -0.72,-1.1 -0.46,-0.42 -1.1,-0.76 -0.66,-0.32 -1.26,-0.48 -0.58,-0.18 -1.26,-0.28 -1.88,-0.24 -3.3,-0.2 -1.42,0.02 -2.56,0.2 -0.3,0.04 -0.52,0.24 -0.22,0.2 -0.28,0.48 -0.22,0.28 -0.22,0.62 0,1.96 0.06,5.88 0.04,3.94 0.04,5.9 0,0.5 0.3,0.76 0.3,0.24 0.7,0.24 0.4,0 0.7,-0.24 0.3,-0.26 0.3,-0.76 0,-1.84 -0.04,-4.76 0.28,0.04 0.84,-0.02 0.26,-0.02 0.86,-0.08 0.58,-0.06 0.78,-0.06 0.2,-0.02 0.4,-0.02 1.46,0.08 2.16,0.4 0.72,0.3 1.1,0.84 0.2,0.3 0.38,0.76 0.18,0.44 0.28,0.84 l 0.36,1 z m -7.58,-7.22 q -0.04,-2.68 -0.04,-4.36 2.52,-0.26 4.56,0.08 2.96,0.5 2.9,2.02 -0.04,1.06 -1.66,1.64 -1.12,0.42 -2.86,0.54 h -0.2 q -0.28,-0.02 -1.28,0 -0.52,0 -0.84,0.02 -0.2,0 -0.34,0.02 z"
         style="font-family:'Balsamiq Sans';-inkscape-font-specification:'Balsamiq Sans';stroke:none"
         id="path16758" />
      <path
         d="m 147.44145,343.30835 v 0 0 0 q 0.38,0 0.56,-0.02 1.44,-0.12 2.56,-0.7 1.12,-0.58 1.74,-1.66 0.18,-0.38 0.52,-1.42 l 0.14,-0.42 q 0.06,-0.18 0.06,-0.36 0,-0.44 -0.32,-0.72 -0.32,-0.28 -0.72,-0.28 -0.28,0 -0.54,0.18 -0.24,0.18 -0.36,0.5 l -0.2,0.64 q -0.2,0.68 -0.34,0.92 -0.74,1.34 -3.16,1.34 -0.8,0 -1.56,-0.2 -0.76,-0.2 -1.3,-0.54 -0.58,-0.38 -1.08,-1.12 -0.5,-0.76 -0.8,-1.64 -0.3,-0.88 -0.3,-1.7 0,-2.28 1.82,-4.04 1.24,-1.18 3.06,-1.34 0.86,-0.06 1.72,0.3 0.38,0.16 0.76,0.46 0.38,0.28 0.66,0.58 l 0.74,0.9 q 0.32,0.38 0.74,0.38 0.42,0 0.74,-0.3 0.32,-0.3 0.32,-0.7 0,-0.32 -0.24,-0.62 l -0.6,-0.74 q -0.62,-0.7 -1.14,-1.12 -0.52,-0.44 -1.26,-0.72 -1.14,-0.44 -2.28,-0.44 -1.32,0 -2.62,0.54 -1.1,0.48 -1.98,1.36 -1.16,1.16 -1.8,2.58 -0.64,1.42 -0.64,2.92 0,1.12 0.4,2.34 0.4,1.2 1.12,2.22 0.7,1.02 1.58,1.58 0.78,0.5 1.84,0.78 1.06,0.28 2.16,0.28 z"
         style="font-family:'Balsamiq Sans';-inkscape-font-specification:'Balsamiq Sans';stroke:none"
         id="path16760" />
      <path
         d="m 162.40147,343.20835 v 0 0 0 q 1.42,0.2 2.76,-0.14 1.36,-0.36 2.4,-1.18 1.04,-0.8 1.68,-1.94 0.64,-1.14 0.96,-2.38 0.3,-1.24 0.28,-2.52 0,-1.3 -0.4,-2.46 -0.4,-1.14 -1.32,-2.08 -0.9,-0.96 -2.28,-1.42 -0.6,-0.2 -1.58,-0.32 -0.52,-0.06 -1,-0.04 -1.06,0.04 -2.12,0.32 -1.06,0.28 -1.84,0.88 -0.8,0.62 -1.4,1.48 -0.6,0.88 -0.96,1.86 -0.34,0.98 -0.46,2.02 -0.1,0.82 -0.04,1.7 0.08,0.88 0.28,1.7 0.18,0.84 0.64,1.6 0.44,0.76 1.04,1.36 0.6,0.6 1.46,1 0.86,0.42 1.9,0.56 z m 0.3,-2.04 v 0 0 0 q -1.32,-0.26 -2.2,-1 -0.9,-0.76 -1.22,-2 -0.3,-1.24 -0.14,-2.66 0.14,-1.36 0.74,-2.38 0.62,-1.04 1.44,-1.64 0.82,-0.6 1.58,-0.7 0.62,-0.08 1,-0.06 0.36,0.02 0.66,0.02 0.38,0 0.64,0.06 0.28,0.06 0.74,0.24 0.96,0.38 1.64,1.3 0.68,0.9 0.84,2.1 0.16,1.22 -0.14,2.58 -0.5,2.24 -2.12,3.36 -1.6,1.12 -3.46,0.78 z"
         style="font-family:'Balsamiq Sans';-inkscape-font-specification:'Balsamiq Sans';stroke:none"
         id="path16762" />
      <path
         d="m 189.26144,342.20835 v 0 0 0 q 0.08,-2.02 0.06,-6.16 -0.04,-4.12 0.04,-6.22 0.02,-0.44 -0.28,-0.72 -0.28,-0.28 -0.68,-0.32 -0.4,-0.04 -0.74,0.28 -0.08,0.06 -0.16,0.14 -1.98,2.14 -4.66,6.22 -0.86,-1.12 -2.12,-2.62 l -2.98,-3.54 q -0.3,-0.36 -0.76,-0.38 -0.18,-0.06 -0.38,-0.04 -0.42,0.04 -0.68,0.36 -0.26,0.32 -0.22,0.74 0.24,2.28 0.24,6.02 0,0.98 -0.02,3.04 -0.04,2.06 -0.04,3.12 0,0.5 0.3,0.76 0.3,0.24 0.7,0.24 0.4,0 0.7,-0.24 0.3,-0.26 0.3,-0.76 0,-1.06 0.04,-3.12 0.02,-2.06 0.02,-3.02 0,-1.94 -0.06,-3.44 l 1.3,1.56 q 2,2.4 2.84,3.58 0.12,0.16 0.3,0.28 0.02,0 0.04,0.02 0.34,0.22 0.74,0.14 0.42,-0.08 0.64,-0.44 2.02,-3.12 3.56,-5.12 0,0.6 0.02,4.78 0.02,4.18 -0.06,4.78 -0.02,0.5 0.26,0.76 0.3,0.26 0.68,0.26 0.4,0.02 0.72,-0.2 0.32,-0.24 0.34,-0.74 z"
         style="font-family:'Balsamiq Sans';-inkscape-font-specification:'Balsamiq Sans';stroke:none"
         id="path16764" />
      <path
         d="m 205.06147,343.06835 v 0 0 0 q 0.5,0 0.74,-0.3 0.24,-0.3 0.22,-0.7 0,-0.4 -0.26,-0.7 -0.26,-0.3 -0.74,-0.3 -2.66,0.04 -7.54,-0.04 0.02,-1.22 0.02,-4.06 0.52,-0.04 1.34,-0.04 0.82,-0.02 1.68,-0.02 0.88,0 1.6,0.02 1.4,0.02 2.1,0.02 0.5,0 0.74,-0.3 0.26,-0.3 0.26,-0.7 0,-0.4 -0.26,-0.7 -0.24,-0.3 -0.74,-0.3 -0.56,0 -1.36,0 -0.78,-0.02 -1.64,-0.02 -0.86,-0.02 -1.6,-0.02 -1.12,0 -2.1,0.06 v -0.82 q 0,-0.48 -0.02,-1.74 -0.04,-1.24 0.02,-1.52 0.68,0 1.72,-0.02 1.04,-0.02 2.14,-0.02 1.12,0 2.08,0 0.96,-0.02 1.5,-0.02 0.5,0 0.74,-0.3 0.26,-0.3 0.26,-0.7 0,-0.4 -0.26,-0.7 -0.24,-0.3 -0.74,-0.3 -0.4,0 -1.14,0 -0.74,0 -1.68,0.02 -0.92,0 -1.9,0.02 -0.96,0 -1.82,0.02 -0.84,0 -1.44,0.02 -0.38,0.02 -0.64,0.26 -0.28,0.08 -0.48,0.3 -0.2,0.22 -0.24,0.5 -0.1,0.6 -0.12,1.34 0,0.74 0,1.48 0.02,0.74 0.02,1.32 -0.02,0.92 -0.02,3.48 0,2.56 -0.04,3.92 0,0.26 0.12,0.5 0,0.4 0.28,0.7 0.3,0.3 0.7,0.3 5.8,0.1 8.5,0.06 z"
         style="font-family:'Balsamiq Sans';-inkscape-font-specification:'Balsamiq Sans';stroke:none"
         id="path16766" />
      <path
         d="m 215.16148,343.34835 v 0 0 0 q 1.4,0 2.62,-0.52 1.24,-0.54 2,-1.52 0.76,-0.98 0.76,-2.26 0,-1.38 -0.96,-2.24 -0.94,-0.88 -2.54,-1.42 -1.2,-0.4 -1.92,-0.68 -0.72,-0.3 -1.36,-0.64 -0.68,-0.38 -1,-0.74 -0.32,-0.36 -0.3,-0.84 0.04,-0.9 0.76,-1.4 0.72,-0.52 2.2,-0.52 0.86,0 1.58,0.3 0.74,0.28 1.18,0.74 0.42,0.48 0.42,0.98 0,0.48 0.28,0.78 0.28,0.28 0.68,0.28 0.42,0 0.7,-0.28 0.3,-0.3 0.3,-0.82 0,-1.02 -0.64,-1.92 -0.64,-0.9 -1.8,-1.44 -1.16,-0.54 -2.64,-0.54 -1.42,0 -2.58,0.58 -1.14,0.56 -1.78,1.48 -0.64,0.92 -0.64,1.92 0,2.22 2.46,3.44 0.86,0.42 2.84,1.08 l 0.62,0.22 q 1,0.32 1.58,0.74 0.58,0.4 0.58,1 0,1 -0.84,1.64 -0.84,0.64 -2.3,0.64 -3.04,0 -3.32,-2.58 -0.06,-0.4 -0.32,-0.6 -0.26,-0.2 -0.58,-0.2 -0.42,0 -0.74,0.3 -0.3,0.28 -0.3,0.76 0,1.24 0.64,2.22 0.66,0.96 1.8,1.5 1.14,0.56 2.56,0.56 z"
         style="font-family:'Balsamiq Sans';-inkscape-font-specification:'Balsamiq Sans';stroke:none"
         id="path16768" />
      <path
         d="m 238.10147,342.14835 v 0 0 0 q 0.02,-0.74 -0.02,-5.72 -0.02,-3.64 0.12,-5.56 2.42,0 3.84,-0.02 0.5,0 0.74,-0.3 0.24,-0.3 0.22,-0.7 0,-0.4 -0.26,-0.7 -0.26,-0.3 -0.74,-0.3 -1.72,0.02 -4.78,0 -3.06,-0.02 -4.78,0.04 -0.48,0.02 -0.72,0.34 -0.24,0.32 -0.24,0.72 0.02,0.38 0.28,0.68 0.26,0.28 0.76,0.26 1.5,-0.06 3.68,-0.04 -0.14,1.98 -0.12,5.6 0.04,4.96 0.02,5.66 0,0.48 0.3,0.74 0.3,0.26 0.7,0.28 0.4,0 0.7,-0.24 0.3,-0.24 0.3,-0.74 z"
         style="font-family:'Balsamiq Sans';-inkscape-font-specification:'Balsamiq Sans';stroke:none"
         id="path16770" />
      <path
         d="m 250.72148,343.20835 v 0 0 0 q 1.42,0.2 2.76,-0.14 1.36,-0.36 2.4,-1.18 1.04,-0.8 1.68,-1.94 0.64,-1.14 0.96,-2.38 0.3,-1.24 0.28,-2.52 0,-1.3 -0.4,-2.46 -0.4,-1.14 -1.32,-2.08 -0.9,-0.96 -2.28,-1.42 -0.6,-0.2 -1.58,-0.32 -0.52,-0.06 -1,-0.04 -1.06,0.04 -2.12,0.32 -1.06,0.28 -1.84,0.88 -0.8,0.62 -1.4,1.48 -0.6,0.88 -0.96,1.86 -0.34,0.98 -0.46,2.02 -0.1,0.82 -0.04,1.7 0.08,0.88 0.28,1.7 0.18,0.84 0.64,1.6 0.44,0.76 1.04,1.36 0.6,0.6 1.46,1 0.86,0.42 1.9,0.56 z m 0.3,-2.04 v 0 0 0 q -1.32,-0.26 -2.2,-1 -0.9,-0.76 -1.22,-2 -0.3,-1.24 -0.14,-2.66 0.14,-1.36 0.74,-2.38 0.62,-1.04 1.44,-1.64 0.82,-0.6 1.58,-0.7 0.62,-0.08 1,-0.06 0.36,0.02 0.66,0.02 0.38,0 0.64,0.06 0.28,0.06 0.74,0.24 0.96,0.38 1.64,1.3 0.68,0.9 0.84,2.1 0.16,1.22 -0.14,2.58 -0.5,2.24 -2.12,3.36 -1.6,1.12 -3.46,0.78 z"
         style="font-family:'Balsamiq Sans';-inkscape-font-specification:'Balsamiq Sans';stroke:none"
         id="path16772" />
      <path
         d="m 285.48148,342.20835 v 0 0 0 q 0.08,-2.02 0.06,-6.16 -0.04,-4.12 0.04,-6.22 0.02,-0.44 -0.28,-0.72 -0.28,-0.28 -0.68,-0.32 -0.4,-0.04 -0.74,0.28 -0.08,0.06 -0.16,0.14 -1.98,2.14 -4.66,6.22 -0.86,-1.12 -2.12,-2.62 l -2.98,-3.54 q -0.3,-0.36 -0.76,-0.38 -0.18,-0.06 -0.38,-0.04 -0.42,0.04 -0.68,0.36 -0.26,0.32 -0.22,0.74 0.24,2.28 0.24,6.02 0,0.98 -0.02,3.04 -0.04,2.06 -0.04,3.12 0,0.5 0.3,0.76 0.3,0.24 0.7,0.24 0.4,0 0.7,-0.24 0.3,-0.26 0.3,-0.76 0,-1.06 0.04,-3.12 0.02,-2.06 0.02,-3.02 0,-1.94 -0.06,-3.44 l 1.3,1.56 q 2,2.4 2.84,3.58 0.12,0.16 0.3,0.28 0.02,0 0.04,0.02 0.34,0.22 0.74,0.14 0.42,-0.08 0.64,-0.44 2.02,-3.12 3.56,-5.12 0,0.6 0.02,4.78 0.02,4.18 -0.06,4.78 -0.02,0.5 0.26,0.76 0.3,0.26 0.68,0.26 0.4,0.02 0.72,-0.2 0.32,-0.24 0.34,-0.74 z"
         style="font-family:'Balsamiq Sans';-inkscape-font-specification:'Balsamiq Sans';stroke:none"
         id="path16774" />
      <path
         d="m 291.62149,343.18835 v 0 0 0 q 1.22,-0.04 2.76,-0.04 0.5,0 0.74,-0.3 0.26,-0.3 0.26,-0.7 0,-0.4 -0.26,-0.7 -0.24,-0.3 -0.74,-0.3 h -0.4 q 0,-6.18 -0.04,-10.28 h 0.16 q 0.5,0 0.74,-0.3 0.26,-0.3 0.26,-0.7 0.02,-0.4 -0.24,-0.7 -0.24,-0.3 -0.72,-0.3 -1.46,-0.02 -2.48,-0.04 -0.48,0 -0.74,0.3 -0.26,0.3 -0.28,0.7 0,0.4 0.24,0.7 0.24,0.3 0.74,0.3 h 0.32 q 0.04,4.12 0.04,10.34 l -0.44,0.02 q -0.48,0.02 -0.72,0.34 -0.24,0.32 -0.24,0.72 0.02,0.38 0.28,0.68 0.26,0.28 0.76,0.26 z"
         style="font-family:'Balsamiq Sans';-inkscape-font-specification:'Balsamiq Sans';stroke:none"
         id="path16776" />
      <path
         d="m 310.74147,343.20835 v 0 0 0 q 0.4,0 0.7,-0.28 0.3,-0.3 0.3,-0.7 0.1,-9.9 0.06,-12.4 0,-0.5 -0.3,-0.74 -0.3,-0.24 -0.7,-0.22 -0.4,0 -0.7,0.26 -0.3,0.26 -0.3,0.74 0.06,3.28 -0.04,9.94 l -0.82,-1.22 -0.94,-1.48 -0.82,-1.3 q -1.96,-3.04 -4.8,-6.58 -0.26,-0.32 -0.68,-0.36 -0.42,-0.04 -0.74,0.18 -0.3,0.28 -0.4,0.56 -0.12,0.32 -0.14,0.62 -0.08,2.28 0.02,6.5 0.1,4.24 0.1,5.44 0,0.5 0.3,0.76 0.3,0.24 0.7,0.24 0.4,0 0.7,-0.24 0.3,-0.26 0.3,-0.76 0,-1.54 -0.08,-4.78 -0.1,-3.24 -0.08,-4.92 1.76,2.32 3.12,4.42 l 0.92,1.44 1,1.58 q 0.38,0.6 0.96,1.44 0.6,0.82 1.14,1.48 0.38,0.44 0.96,0.34 0.12,0.04 0.26,0.04 z"
         style="font-family:'Balsamiq Sans';-inkscape-font-specification:'Balsamiq Sans';stroke:none"
         id="path16778" />
      <path
         d="m 319.18148,343.18835 v 0 0 0 q 0.48,-0.02 1.82,-0.02 1.24,0 2,-0.06 2.56,-0.2 4.06,-1.4 1.26,-1 1.98,-2.56 0.7,-1.58 0.76,-3.28 0.06,-1.76 -0.6,-3.34 -0.64,-1.6 -2.04,-2.62 -0.66,-0.48 -1.52,-0.78 -0.84,-0.3 -1.54,-0.44 -0.7,-0.12 -1.68,-0.12 -0.66,0 -1.1,0.02 -0.42,0 -0.84,0.04 -0.42,0.02 -1.04,0.08 -0.2,0.02 -0.38,0.12 h -0.08 q -0.4,-0.02 -0.72,0.26 -0.3,0.28 -0.32,0.7 -0.06,1.1 0.02,3.08 0.08,2.02 0.06,2.94 -0.1,5.62 -0.1,6.26 0,0.34 0.18,0.62 0.2,0.26 0.52,0.36 0.26,0.16 0.56,0.14 z m 0.76,-2.02 q 0,-0.42 0,-1.06 0.02,-0.66 0.02,-1.34 0.02,-0.7 0.04,-1.26 0.02,-1.06 0.02,-1.66 0.02,-0.88 -0.06,-3.06 -0.06,-1.52 -0.04,-2.1 1.2,-0.1 2.18,-0.12 0.98,-0.04 2.02,0.2 1.02,0.24 1.76,0.78 0.92,0.66 1.4,1.8 0.46,1.12 0.4,2.44 -0.04,1.32 -0.58,2.5 -0.52,1.16 -1.4,1.86 -1.04,0.82 -2.86,0.96 -0.66,0.06 -1.84,0.06 z"
         style="font-family:'Balsamiq Sans';-inkscape-font-specification:'Balsamiq Sans';stroke:none"
         id="path16780" />
    </g>
  </g>
</svg>
